<svg width="45" height="51" viewBox="0 0 45 51" fill="none" xmlns="http://www.w3.org/2000/svg">
<g clip-path="url(#clip0_2_12926)">
<path d="M36.3748 26.6008C36.3525 22.4982 38.1995 19.4017 41.9378 17.1212C39.8461 14.1141 36.6863 12.4597 32.5141 12.1355C28.5644 11.8225 24.2475 14.4495 22.6676 14.4495C20.9987 14.4495 17.1713 12.2473 14.1673 12.2473C7.95904 12.3479 1.36133 17.2218 1.36133 27.1374C1.36133 30.0663 1.89538 33.092 2.96347 36.2146C4.3876 40.3172 9.5278 50.3781 14.8905 50.2104C17.6943 50.1434 19.6747 48.2094 23.324 48.2094C26.8621 48.2094 28.6979 50.2104 31.8243 50.2104C37.2315 50.1322 41.8822 40.9879 43.2395 36.8741C35.9854 33.4422 36.3748 26.8132 36.3748 26.6008ZM30.0775 8.24525C33.1149 4.62332 32.8367 1.32558 32.7477 0.140625C30.0664 0.297128 26.9622 1.97395 25.1932 4.04202C23.2461 6.25542 22.1002 8.99423 22.3449 12.0796C25.2488 12.3032 27.8968 10.8052 30.0775 8.24525Z" fill="white"/>
</g>
<defs>
<clipPath id="clip0_2_12926">
<rect width="44.6" height="50.2375" fill="white" transform="translate(0 0.140625)"/>
</clipPath>
</defs>
</svg>
